<svg xmlns="http://www.w3.org/2000/svg" width="105" height="105" viewBox="0 0 105 105">
  <g id="Group_632" data-name="Group 632" transform="translate(-408 -1216)">
    <rect id="Rectangle_491" data-name="Rectangle 491" width="105" height="105" transform="translate(408 1216)" fill="#fff" opacity="0"/>
    <g id="Group_607" data-name="Group 607" transform="translate(-3504.211 -1193)">
      <path id="Path_54" data-name="Path 54" d="M205.71,535.16v4.215h7.6v3.385h-10.98v-7.6H198.11v11.815h19.41V535.16Z" transform="translate(3745.956 1942.563)" fill="#c7303c"/>
      <path id="Path_55" data-name="Path 55" d="M247.54,505.29v31.224h11.81v-23.62h-4.215V532.3h-3.38V509.51H270.33v10.975h-3.38v-7.591h-4.215V524.7h11.81V505.29Z" transform="translate(3719.452 1958.658)" fill="#2c2b2a"/>
      <path id="Path_56" data-name="Path 56" d="M247.54,439.36v11.819h4.215v-7.6h10.98v3.385h-7.6v4.219H266.95V439.36Z" transform="translate(3719.407 1994.512)" fill="#c7303c"/>
      <path id="Path_57" data-name="Path 57" d="M199.577,472.33V493.7H176.726v-3.385h19.461V486.1H172.5v11.824h31.3V476.545h30.471v3.385H207.2v4.215h31.3V472.33Z" transform="translate(3759.711 1976.582)" fill="#c7303c"/>
      <path id="Path_58" data-name="Path 58" d="M196.835,427v27.069h-10.98V442.877h3.38v7.807h4.215V438.658H181.64v19.626h19.41V431.215h3.38v13.3h4.215V427Z" transform="translate(3754.786 2001.172)" fill="#2c2b2a"/>
    </g>
  </g>
</svg>