<?xml version="1.0" encoding="utf-8"?><svg xmlns="http://www.w3.org/2000/svg" xmlns:xlink="http://www.w3.org/1999/xlink"><symbol viewBox="0 0 45.701 45.7" id="checked" xmlns="http://www.w3.org/2000/svg"><path d="M20.687 38.332a5.308 5.308 0 01-7.505 0L1.554 26.704A5.306 5.306 0 119.059 19.2l6.928 6.927a1.344 1.344 0 001.896 0L36.642 7.368a5.308 5.308 0 017.505 7.504l-23.46 23.46z"/></symbol><symbol viewBox="0 0 469.785 469.785" id="error" xmlns="http://www.w3.org/2000/svg"><path d="M285.368 234.691L459.36 60.697c13.895-13.88 13.895-36.395 0-50.275-13.881-13.895-36.38-13.895-50.275 0L235.091 184.416 61.082 10.421c-13.866-13.895-36.395-13.895-50.275 0-13.88 13.881-13.88 36.395 0 50.275l174.01 173.995L10.421 409.085c-13.895 13.895-13.895 36.395 0 50.275 6.94 6.955 16.043 10.425 25.145 10.425 9.088 0 18.19-3.47 25.132-10.425L235.09 284.967l173.995 173.995c6.955 6.94 16.043 10.425 25.145 10.425a35.46 35.46 0 0025.131-10.425c13.895-13.88 13.895-36.38 0-50.275L285.367 234.691z"/></symbol><symbol viewBox="0 0 128 128" id="loading" xmlns="http://www.w3.org/2000/svg"><g><circle cx="16" cy="64" r="16"/><circle cx="16" cy="64" r="16" fill-opacity=".67" transform="rotate(45 64 64)"/><circle cx="16" cy="64" r="16" fill-opacity=".42" transform="rotate(90 64 64)"/><circle cx="16" cy="64" r="16" fill-opacity=".2" transform="rotate(135 64 64)"/><circle cx="16" cy="64" r="16" fill-opacity=".12" transform="rotate(180 64 64)"/><circle cx="16" cy="64" r="16" fill-opacity=".12" transform="rotate(225 64 64)"/><circle cx="16" cy="64" r="16" fill-opacity=".12" transform="rotate(270 64 64)"/><circle cx="16" cy="64" r="16" fill-opacity=".12" transform="rotate(315 64 64)"/><animateTransform attributeName="transform" type="rotate" values="0 64 64;315 64 64;270 64 64;225 64 64;180 64 64;135 64 64;90 64 64;45 64 64" calcMode="discrete" dur="720ms" repeatCount="indefinite"/></g></symbol></svg>